<svg xmlns="http://www.w3.org/2000/svg" xmlns:xlink="http://www.w3.org/1999/xlink" width="375" height="375" contentScriptType="text/ecmascript" contentStyleType="text/css" preserveAspectRatio="xMidYMid meet" version="1.0" viewBox="0 0 375 375" zoomAndPan="magnify"><defs><clipPath id="clip-0"><path d="M 66.347656 12.605469 L 306 12.605469 L 306 362 L 66.347656 362 Z M 66.347656 12.605469" clip-rule="nonzero"/></clipPath></defs><g clip-path="url(#clip-0)"><path fill="#8379CD" fill-opacity="1" fill-rule="nonzero" d="M 305.53125 132.332031 C 308.703125 242.75 214.824219 361.859375 185.960938 361.859375 C 156.5625 361.859375 66.40625 250.519531 66.40625 132.332031 C 66.40625 66.335938 119.941406 12.84375 185.960938 12.84375 C 252 12.84375 303.636719 66.367188 305.53125 132.332031"/></g><path fill="#5CE1E6" fill-opacity="1" fill-rule="nonzero" d="M 257.773438 125.175781 C 257.773438 164.792969 225.648438 196.898438 186.007812 196.898438 C 146.382812 196.898438 114.242188 164.792969 114.242188 125.175781 C 114.242188 85.574219 146.382812 53.46875 186.007812 53.46875 C 225.648438 53.46875 257.773438 85.574219 257.773438 125.175781"/></svg>